<svg width="36" height="38" viewBox="0 0 36 38" fill="none" xmlns="http://www.w3.org/2000/svg" xmlns:xlink="http://www.w3.org/1999/xlink">
<path d="M35.99,18.801C35.99,17.561 35.87,16.281 35.67,15.081L18.35,15.081L18.35,22.161L28.27,22.161C27.87,24.441 26.55,26.441 24.59,27.721L30.51,32.321C33.99,29.081 35.99,24.361 35.99,18.801Z" fill="#4280EF"/>
<path d="M18.35,36.721C23.31,36.721 27.47,35.081 30.51,32.281L24.59,27.721C22.95,28.841 20.83,29.481 18.35,29.481C13.55,29.481 9.51,26.241 8.03,21.921L1.95,26.601C5.07,32.801 11.39,36.721 18.35,36.721Z" fill="#34A353"/>
<path d="M8.03,21.881C7.27,19.601 7.27,17.121 8.03,14.841L1.95,10.121C-0.65,15.321 -0.65,21.441 1.95,26.601L8.03,21.881Z" fill="#F6B704"/>
<path d="M18.35,7.281C20.95,7.241 23.51,8.241 25.39,10.041L30.63,4.761C27.31,1.641 22.91,-0.039 18.35,0.001C11.39,0.001 5.07,3.921 1.95,10.121L8.03,14.841C9.51,10.481 13.55,7.281 18.35,7.281Z" fill="#E54335"/>
</svg>
