<svg width="40" height="40" viewBox="0 0 40 40" fill="none" xmlns="http://www.w3.org/2000/svg" xmlns:xlink="http://www.w3.org/1999/xlink">
<path d="M20,-0.221C9.157,-0.221 0.286,8.65 0.286,19.493C0.286,28.2 5.871,35.593 13.757,38.221C14.743,38.386 15.071,37.729 15.071,37.236C15.071,36.743 15.071,35.593 15.071,33.95C9.65,35.1 8.5,31.321 8.5,31.321C7.679,29.021 6.364,28.364 6.364,28.364C4.393,27.214 6.364,27.214 6.364,27.214C8.336,27.379 9.321,29.186 9.321,29.186C11.129,32.143 13.921,31.321 15.071,30.829C15.236,29.514 15.729,28.693 16.386,28.2C11.95,27.707 7.35,26.064 7.35,18.507C7.35,16.371 8.171,14.564 9.321,13.25C9.321,12.593 8.5,10.621 9.65,7.993C9.65,7.993 11.293,7.5 15.071,9.964C16.714,9.471 18.357,9.307 20,9.307C21.643,9.307 23.286,9.471 24.929,9.964C28.707,7.336 30.35,7.993 30.35,7.993C31.5,10.786 30.679,12.757 30.514,13.25C31.829,14.564 32.486,16.371 32.486,18.507C32.486,26.064 27.886,27.707 23.45,28.2C24.107,28.857 24.764,30.007 24.764,31.814C24.764,34.443 24.764,36.579 24.764,37.236C24.764,37.729 25.093,38.386 26.079,38.221C33.964,35.593 39.55,28.2 39.55,19.493C39.714,8.65 30.843,-0.221 20,-0.221Z" clip-rule="evenodd" fill-rule="evenodd" transform="rotate(0 19.919 19.013)" fill="#BDC1CA"/>
</svg>
